<svg width="256" height="256" viewBox="0 0 256 256" fill="none" xmlns="http://www.w3.org/2000/svg">
<path d="M160.225 130.577C188.096 130.577 210.69 107.983 210.69 80.1119C210.69 52.241 188.096 29.6471 160.225 29.6471C132.354 29.6471 109.76 52.241 109.76 80.1119C109.76 107.983 132.354 130.577 160.225 130.577Z" fill="#5CE1E6"/>
<path d="M177.945 119.002C176.849 117.906 175.522 117.117 174.067 116.678C175.413 113.354 174.744 109.395 172.052 106.703C170.953 105.607 169.63 104.82 168.183 104.39C169.442 101.1 168.75 97.2276 166.103 94.5777C165.207 93.6814 164.17 93.007 163.06 92.5602L168.141 87.4825C171.726 83.8941 171.726 78.0578 168.141 74.4722C164.662 70.999 158.603 70.9962 155.13 74.4722L124.271 105.329C123.636 101.218 120.241 97.9132 115.917 97.5648C113.472 97.3653 111.089 98.1352 109.215 99.7285C107.343 101.322 106.205 103.547 106.006 105.995L103.699 134.64C103.629 135.261 103.578 135.888 103.542 136.657C103.21 144.579 106.233 152.337 111.837 157.94C117.204 163.305 124.336 166.261 131.923 166.261C139.512 166.261 146.647 163.305 152.011 157.94L177.65 132.299L177.942 132.01C181.533 128.424 181.533 122.588 177.945 119.002ZM173.977 128.034L148.043 153.967C139.158 162.85 124.701 162.855 115.813 153.967C111.32 149.471 108.895 143.25 109.162 136.787C109.184 136.278 109.226 135.772 109.291 135.179L111.606 106.45C111.682 105.497 112.129 104.629 112.857 104.011C113.509 103.455 114.321 103.157 115.169 103.157C115.268 103.157 115.366 103.159 115.462 103.168C117.429 103.328 118.901 105.056 118.744 107.023L118.325 112.225C118.229 113.399 118.876 114.509 119.946 115.001C121.017 115.493 122.281 115.268 123.11 114.436L159.104 78.4455C160.455 77.0939 162.813 77.0967 164.167 78.4455C165.561 79.8421 165.561 82.1126 164.167 83.5092L153.107 94.5665C153.101 94.5693 153.099 94.5749 153.093 94.5806L139.507 108.167C138.408 109.266 138.408 111.042 139.507 112.14C140.055 112.688 140.774 112.964 141.493 112.964C142.213 112.964 142.932 112.688 143.48 112.14L157.066 98.5539L157.075 98.5455C158.424 97.2023 160.778 97.2023 162.13 98.5539C163.524 99.9505 163.524 102.221 162.13 103.618L159.042 106.706L148.544 117.204C147.445 118.3 147.445 120.078 148.544 121.177C149.092 121.725 149.811 122.001 150.53 122.001C151.25 122.001 151.969 121.725 152.517 121.177L163.015 110.679C164.367 109.327 166.724 109.33 168.079 110.679C169.473 112.076 169.473 114.346 168.079 115.743L164.957 118.865C164.923 118.895 164.892 118.929 164.859 118.96L164.586 119.233L164.583 119.235L157.581 126.238C156.482 127.334 156.482 129.113 157.581 130.211C158.129 130.759 158.848 131.035 159.567 131.035C160.287 131.035 161.006 130.759 161.554 130.211L168.565 123.2L168.896 122.869C169.551 122.245 170.42 121.902 171.355 121.902C171.366 121.902 171.375 121.902 171.383 121.902C172.37 121.908 173.289 122.29 173.971 122.973C175.365 124.369 175.365 126.643 173.977 128.034Z" fill="white"/>
<path d="M39.7096 233.212C38.9903 233.212 38.2709 232.937 37.723 232.389C36.6242 231.29 36.6242 229.514 37.723 228.415L98.1436 167.995C99.2423 166.896 101.018 166.896 102.117 167.995C103.216 169.093 103.216 170.869 102.117 171.968L41.6963 232.389C41.1483 232.939 40.429 233.212 39.7096 233.212Z" fill="#5CE1E6"/>
<path d="M90.9079 217.279C90.1885 217.279 89.4692 217.004 88.9212 216.456C87.8225 215.357 87.8225 213.581 88.9212 212.483L123.071 178.333C124.17 177.234 125.946 177.234 127.044 178.333C128.143 179.431 128.143 181.207 127.044 182.306L92.8945 216.456C92.3466 217.007 91.6272 217.279 90.9079 217.279Z" fill="#5CE1E6"/>
<path d="M31.7995 242.094H28.0172V238.309C28.0172 236.755 26.7583 235.499 25.2072 235.499C23.6561 235.499 22.3972 236.755 22.3972 238.309V242.094H18.6149C17.0638 242.094 15.8049 243.35 15.8049 244.904C15.8049 246.458 17.0638 247.714 18.6149 247.714H22.3972V251.497C22.3972 253.051 23.6561 254.307 25.2072 254.307C26.7583 254.307 28.0172 253.051 28.0172 251.497V247.714H31.7995C33.3506 247.714 34.6095 246.458 34.6095 244.904C34.6095 243.35 33.3506 242.094 31.7995 242.094Z" fill="#5CE1E6"/>
<path d="M75.4248 239.554C72.966 239.554 70.5045 238.618 68.633 236.747C64.8873 233.001 64.8873 226.903 68.633 223.158C72.3816 219.415 78.4737 219.415 82.2194 223.158C85.9651 226.903 85.9651 233.001 82.2194 236.747C80.3451 238.618 77.8835 239.554 75.4248 239.554ZM75.4248 225.965C74.4048 225.965 73.3819 226.356 72.6064 227.131C71.0524 228.688 71.0524 231.217 72.6064 232.774C74.1603 234.327 76.6893 234.327 78.2432 232.774C79.8 231.217 79.8 228.688 78.2432 227.131C77.4649 226.356 76.4448 225.965 75.4248 225.965Z" fill="#5CE1E6"/>
<path d="M68.6274 170.349C67.908 170.349 67.1886 170.074 66.6407 169.526C65.542 168.427 65.542 166.651 66.6407 165.553L88.466 143.727C89.5647 142.629 91.3406 142.629 92.4393 143.727C93.538 144.826 93.538 146.602 92.4393 147.701L70.614 169.526C70.0661 170.074 69.3467 170.349 68.6274 170.349Z" fill="#5CE1E6"/>
<path d="M52.3545 193.417C49.8957 193.417 47.437 192.481 45.5627 190.607C41.817 186.861 41.817 180.763 45.5627 177.018C49.3113 173.275 55.4033 173.275 59.1491 177.018C62.8948 180.763 62.8948 186.861 59.1491 190.607C57.2748 192.478 54.8132 193.417 52.3545 193.417ZM52.3545 179.825C51.3316 179.825 50.3116 180.215 49.5332 180.991C47.9793 182.548 47.9793 185.077 49.5332 186.633C51.0872 188.187 53.6162 188.187 55.1701 186.633C56.724 185.077 56.724 182.548 55.1701 180.991C54.3945 180.215 53.3773 179.825 52.3545 179.825Z" fill="#5CE1E6"/>
<path d="M184.284 154.894C183.09 154.894 181.986 154.13 181.606 152.933C181.137 151.455 181.958 149.876 183.436 149.406C213.851 139.774 234.288 111.845 234.288 79.9124C234.288 39.7237 201.591 7.02659 161.402 7.02659C121.214 7.02659 88.5194 39.7237 88.5194 79.9124C88.5194 88.6627 90.0537 97.2191 93.08 105.346C93.6224 106.801 92.8833 108.42 91.4278 108.959C89.9694 109.502 88.3564 108.76 87.8141 107.307C84.5517 98.5483 82.8994 89.3315 82.8994 79.9096C82.8994 36.6243 118.117 1.40659 161.402 1.40659C204.69 1.40659 239.908 36.6243 239.908 79.9124C239.908 114.31 217.895 144.388 185.133 154.765C184.849 154.852 184.565 154.894 184.284 154.894Z" fill="white"/>
<path d="M187.951 106.186C187.271 106.186 186.591 105.941 186.049 105.444C184.908 104.393 184.829 102.617 185.88 101.473C191.528 95.328 194.639 87.3448 194.639 78.9907C194.639 60.6639 179.729 45.754 161.402 45.754C143.078 45.754 128.166 60.6639 128.166 78.9907C128.166 80.5418 126.907 81.8007 125.356 81.8007C123.805 81.8007 122.546 80.5418 122.546 78.9907C122.546 57.5644 139.976 40.134 161.402 40.134C182.829 40.134 200.259 57.5644 200.259 78.9907C200.259 88.7582 196.623 98.0959 190.017 105.278C189.466 105.88 188.707 106.186 187.951 106.186Z" fill="white"/>
</svg>
