<svg width="256" height="256" viewBox="0 0 256 256" fill="none" xmlns="http://www.w3.org/2000/svg">
<path d="M127.843 186.473C145.635 186.473 160.059 172.049 160.059 154.257C160.059 136.464 145.635 122.04 127.843 122.04C110.05 122.04 95.626 136.464 95.626 154.257C95.626 172.049 110.05 186.473 127.843 186.473Z" fill="#5CE1E6"/>
<path d="M201.512 97.1911H54.2009C49.0558 97.1911 44.8689 101.375 44.8689 106.52V191.587C44.8689 196.732 49.0558 200.917 54.2009 200.917H110.286V220.986H88.0895C86.5665 220.986 85.3301 222.219 85.3301 223.745C85.3301 225.271 86.5665 226.504 88.0895 226.504H167.627C169.152 226.504 170.386 225.271 170.386 223.745C170.386 222.219 169.152 220.986 167.627 220.986H145.43V200.917H201.515C206.66 200.917 210.844 196.732 210.844 191.587V106.52C210.844 101.375 206.657 97.1911 201.512 97.1911ZM139.912 220.988H115.805V200.919H139.912V220.988ZM205.323 191.59C205.323 193.692 203.614 195.401 201.512 195.401H54.2009C52.099 195.401 50.3877 193.692 50.3877 191.59V106.52C50.3877 104.418 52.099 102.71 54.2009 102.71H201.512C203.614 102.71 205.323 104.421 205.323 106.52V191.59Z" fill="white"/>
<path d="M163.473 129.04L149.651 132.74L152.759 135.848L123.768 164.845L108.558 149.637L90.2897 167.905C89.2107 168.984 89.2107 170.729 90.2897 171.808C91.3688 172.887 93.1138 172.887 94.1928 171.808L108.56 157.44L123.771 172.648L156.668 139.751L159.775 142.859L163.473 129.04Z" fill="white"/>
<path d="M215.02 158.831H179.291C177.765 158.831 176.531 157.598 176.531 156.072C176.531 154.546 177.765 153.312 179.291 153.312H215.02C216.546 153.312 217.779 154.546 217.779 156.072C217.779 157.598 216.546 158.831 215.02 158.831Z" fill="#5CE1E6"/>
<path d="M76.0065 158.831H40.2802C38.7572 158.831 37.5208 157.598 37.5208 156.072C37.5208 154.546 38.7572 153.312 40.2802 153.312H76.0065C77.5295 153.312 78.7659 154.546 78.7659 156.072C78.7659 157.598 77.5295 158.831 76.0065 158.831Z" fill="#5CE1E6"/>
<path d="M164.165 122.318C163.459 122.318 162.751 122.048 162.215 121.509C161.136 120.43 161.136 118.685 162.215 117.606L187.479 92.3438C188.558 91.2648 190.303 91.2648 191.382 92.3438C192.461 93.4228 192.461 95.1678 191.382 96.2469L166.118 121.509C165.578 122.048 164.87 122.318 164.165 122.318Z" fill="#5CE1E6"/>
<path d="M91.1328 122.318C90.4275 122.318 89.7193 122.048 89.1826 121.509L63.9207 96.2469C62.8417 95.1678 62.8417 93.4228 63.9207 92.3438C64.9998 91.2648 66.7448 91.2648 67.8238 92.3438L93.0857 117.606C94.1648 118.685 94.1648 120.43 93.0857 121.509C92.5434 122.048 91.8381 122.318 91.1328 122.318Z" fill="#5CE1E6"/>
<path d="M127.649 107.189C126.126 107.189 124.889 105.953 124.889 104.43V68.7033C124.889 67.1802 126.126 65.9438 127.649 65.9438C129.172 65.9438 130.408 67.1802 130.408 68.7033V104.43C130.408 105.955 129.172 107.189 127.649 107.189Z" fill="#5CE1E6"/>
<path d="M14.6754 153.315V148.325C14.6754 146.799 13.4418 145.565 11.916 145.565C10.3902 145.565 9.1566 146.799 9.1566 148.325V153.315H4.16604C2.64021 153.315 1.40662 154.552 1.40662 156.075C1.40662 157.6 2.64021 158.834 4.16604 158.834H9.1566V163.825C9.1566 165.35 10.3902 166.584 11.916 166.584C12.6775 166.584 13.3688 166.275 13.8662 165.775C14.3663 165.275 14.6754 164.586 14.6754 163.825V158.834H19.666C20.4275 158.834 21.1188 158.525 21.6161 158.025C22.1135 157.525 22.4254 156.836 22.4254 156.075C22.4254 154.549 21.1918 153.315 19.666 153.315H14.6754Z" fill="#5CE1E6"/>
<path d="M130.439 34.6461V29.6527C130.439 28.1269 129.205 26.8933 127.68 26.8933C126.154 26.8933 124.92 28.1269 124.92 29.6527V34.6461H119.927C118.401 34.6461 117.167 35.8797 117.167 37.4055C117.167 38.9313 118.401 40.1649 119.927 40.1649H124.92V45.1583C124.92 46.6841 126.154 47.9177 127.68 47.9177C128.441 47.9177 129.132 47.6086 129.63 47.1084C130.13 46.6082 130.439 45.9198 130.439 45.1583V40.1649H135.432C136.194 40.1649 136.885 39.8558 137.382 39.3556C137.883 38.8555 138.192 38.167 138.192 37.4055C138.192 35.8797 136.958 34.6461 135.432 34.6461H130.439Z" fill="#5CE1E6"/>
<path d="M246.557 153.315V148.325C246.557 146.799 245.323 145.565 243.797 145.565C242.271 145.565 241.038 146.799 241.038 148.325V153.318H236.044C234.519 153.318 233.285 154.552 233.285 156.077C233.285 157.603 234.519 158.837 236.044 158.837H241.035V163.827C241.035 165.353 242.268 166.587 243.794 166.587C244.556 166.587 245.247 166.278 245.744 165.778C246.242 165.277 246.554 164.589 246.554 163.827V158.834H251.547C252.309 158.834 253 158.525 253.497 158.025C253.995 157.525 254.307 156.836 254.307 156.075C254.307 154.549 253.073 153.315 251.547 153.315H246.557Z" fill="#5CE1E6"/>
<path d="M44.9223 83.5738C42.1685 83.5738 39.4147 82.5256 37.3213 80.4294C35.2896 78.3978 34.1713 75.7002 34.1713 72.8283C34.1713 69.9565 35.2896 67.2561 37.3213 65.2273C41.3817 61.1668 48.4657 61.1668 52.5262 65.2273C56.7187 69.4198 56.7187 76.2397 52.5262 80.4322C50.4271 82.5256 47.6733 83.5738 44.9223 83.5738ZM44.9223 67.5933C43.5258 67.5933 42.2107 68.1384 41.2216 69.1276C40.2324 70.1167 39.6873 71.429 39.6873 72.8283C39.6873 74.2249 40.2324 75.54 41.2216 76.5291C43.2616 78.5692 46.5802 78.5664 48.6231 76.5291C50.6632 74.489 50.6632 71.1676 48.6231 69.1276C47.6312 68.1384 46.3189 67.5933 44.9223 67.5933Z" fill="#5CE1E6"/>
<path d="M211.058 83.5738C208.304 83.5738 205.553 82.5256 203.457 80.4294C199.264 76.2369 199.264 69.417 203.457 65.2245C207.515 61.164 214.604 61.164 218.662 65.2245C222.854 69.417 222.854 76.2369 218.662 80.4294C216.566 82.5256 213.812 83.5738 211.058 83.5738ZM211.058 67.5933C209.659 67.5933 208.346 68.1384 207.357 69.1276C205.317 71.1676 205.317 74.489 207.357 76.5291C209.4 78.5692 212.716 78.5692 214.759 76.5291C216.799 74.489 216.799 71.1676 214.759 69.1276C213.77 68.1384 212.457 67.5933 211.058 67.5933Z" fill="#5CE1E6"/>
</svg>
