<svg width="256" height="256" viewBox="0 0 256 256" fill="none" xmlns="http://www.w3.org/2000/svg">
<path d="M185.686 118.359C207.413 118.359 225.026 100.746 225.026 79.0188C225.026 57.2919 207.413 39.6788 185.686 39.6788C163.96 39.6788 146.346 57.2919 146.346 79.0188C146.346 100.746 163.96 118.359 185.686 118.359Z" fill="#5CE1E6"/>
<path d="M234.235 30.476C221.295 17.5332 204.086 10.4042 185.779 10.4042C167.475 10.4042 150.266 17.5332 137.326 30.476C111.28 56.5219 110.701 98.4499 135.441 125.297L120.876 139.861C118.468 138.234 115.625 137.352 112.64 137.352C108.695 137.352 104.994 138.877 102.221 141.651L45.5459 198.326C39.7995 204.072 39.7995 213.418 45.5459 219.165C48.4177 222.037 52.1916 223.472 55.9654 223.472C59.7392 223.472 63.5131 222.037 66.3849 219.165L123.057 162.493C128.123 157.426 128.708 149.569 124.844 143.84L139.363 129.321C152.048 141.03 168.419 147.454 185.782 147.454C204.089 147.454 221.297 140.327 234.237 127.382C247.18 114.439 254.309 97.2332 254.309 78.9289C254.304 60.6245 247.177 43.4189 234.235 30.476ZM119.081 158.519L62.4087 215.191C58.8541 218.743 53.0711 218.743 49.5193 215.191C45.9646 211.637 45.9646 205.854 49.5193 202.299L106.191 145.627C107.903 143.916 110.193 142.974 112.635 142.974C115.077 142.974 117.367 143.916 119.078 145.627C122.635 149.182 122.635 154.965 119.081 158.519ZM230.258 123.411C218.375 135.295 202.58 141.836 185.776 141.836C168.975 141.836 153.177 135.295 141.297 123.411C116.771 98.8827 116.771 58.9779 141.297 34.4494C153.18 22.5687 168.975 16.0242 185.776 16.0242C202.58 16.0242 218.378 22.5687 230.258 34.4494C242.139 46.3301 248.684 62.1279 248.684 78.9317C248.684 95.7327 242.142 111.53 230.258 123.411Z" fill="white"/>
<path d="M91.0934 224.751C90.3741 224.751 89.6547 224.476 89.1067 223.928C88.008 222.829 88.008 221.053 89.1067 219.954L147.985 161.079C149.083 159.981 150.859 159.981 151.958 161.079C153.057 162.178 153.057 163.954 151.958 165.053L93.0801 223.928C92.5293 224.478 91.81 224.751 91.0934 224.751Z" fill="#5CE1E6"/>
<path d="M25.3647 193.827C24.6453 193.827 23.9259 193.552 23.378 193.004C22.2793 191.905 22.2793 190.129 23.378 189.03L101.85 110.558C102.949 109.46 104.725 109.46 105.823 110.558C106.922 111.657 106.922 113.433 105.823 114.532L27.3513 193.004C26.8034 193.554 26.084 193.827 25.3647 193.827Z" fill="#5CE1E6"/>
<path d="M146.602 206.416C145.883 206.416 145.163 206.14 144.615 205.592C143.517 204.494 143.517 202.718 144.615 201.619L177.891 168.343C178.99 167.244 180.766 167.244 181.865 168.343C182.963 169.442 182.963 171.218 181.865 172.316L148.589 205.592C148.041 206.14 147.321 206.416 146.602 206.416Z" fill="#5CE1E6"/>
<path d="M69.6923 112.326C68.9729 112.326 68.2536 112.05 67.7056 111.502C66.6069 110.404 66.6069 108.628 67.7056 107.529L95.0947 80.14C96.1934 79.0413 97.9693 79.0413 99.068 80.14C100.167 81.2387 100.167 83.0146 99.068 84.1133L71.679 111.502C71.131 112.053 70.4117 112.326 69.6923 112.326Z" fill="#5CE1E6"/>
<path d="M83.3853 233.263H79.7717V229.649C79.7717 228.095 78.5128 226.839 76.9617 226.839C75.4106 226.839 74.1517 228.095 74.1517 229.649V233.263H70.538C68.9869 233.263 67.728 234.519 67.728 236.073C67.728 237.626 68.9869 238.883 70.538 238.883H74.1517V242.496C74.1517 244.05 75.4106 245.306 76.9617 245.306C78.5128 245.306 79.7717 244.05 79.7717 242.496V238.883H83.3853C84.9365 238.883 86.1953 237.626 86.1953 236.073C86.1953 234.519 84.9393 233.263 83.3853 233.263Z" fill="#5CE1E6"/>
<path d="M60.0062 122.818H56.3925V119.205C56.3925 117.653 55.1337 116.395 53.5825 116.395C52.0314 116.395 50.7725 117.653 50.7725 119.205V122.818H47.1589C45.6078 122.818 44.3489 124.077 44.3489 125.628C44.3489 127.179 45.6078 128.438 47.1589 128.438H50.7725V132.052C50.7725 133.606 52.0314 134.862 53.5825 134.862C55.1337 134.862 56.3925 133.606 56.3925 132.052V128.438H60.0062C61.5573 128.438 62.8162 127.179 62.8162 125.628C62.8162 124.077 61.5573 122.818 60.0062 122.818Z" fill="#5CE1E6"/>
<path d="M10.8369 214.975C8.42309 214.975 6.00649 214.056 4.16594 212.218C0.487654 208.537 0.487654 202.558 4.16594 198.877C7.72902 195.313 13.9419 195.311 17.5106 198.877C21.1861 202.558 21.1861 208.537 17.5106 212.218C15.6701 214.056 13.2535 214.975 10.8369 214.975ZM10.8369 201.731C9.81685 201.731 8.85864 202.128 8.14209 202.847C6.6556 204.334 6.6556 206.756 8.14209 208.242C9.62858 209.729 12.048 209.729 13.5345 208.242C15.021 206.756 15.021 204.334 13.5345 202.847C12.8151 202.125 11.8569 201.731 10.8369 201.731Z" fill="#5CE1E6"/>
<path d="M131.515 228.126C128.997 228.126 126.626 227.142 124.844 225.364C123.063 223.582 122.082 221.213 122.082 218.695C122.082 216.175 123.066 213.806 124.847 212.025C128.407 208.461 134.623 208.456 138.186 212.025C139.968 213.806 140.948 216.175 140.948 218.695C140.948 221.213 139.968 223.582 138.186 225.364C136.405 227.148 134.033 228.126 131.515 228.126ZM131.515 214.879C130.498 214.879 129.54 215.276 128.82 215.995C128.098 216.717 127.702 217.673 127.702 218.693C127.702 219.71 128.101 220.665 128.818 221.387C130.262 222.832 132.768 222.832 134.213 221.387C134.935 220.665 135.328 219.71 135.328 218.693C135.328 217.673 134.932 216.717 134.213 215.995C133.493 215.273 132.532 214.879 131.515 214.879Z" fill="#5CE1E6"/>
<path d="M230.655 52.1271L212.792 56.9125L217.344 61.4647L183.646 95.1622L165.643 77.1586L144.337 98.464C143.239 99.5627 143.239 101.339 144.337 102.437C144.885 102.985 145.605 103.261 146.324 103.261C147.043 103.261 147.763 102.985 148.311 102.437L165.643 85.108L183.646 103.112L221.317 65.438L225.869 69.9902L230.655 52.1271Z" fill="white"/>
</svg>
