<svg width="256" height="256" viewBox="0 0 256 256" fill="none" xmlns="http://www.w3.org/2000/svg">
<path d="M8.86161 251.986C8.14225 251.986 7.42289 251.71 6.87494 251.162C5.77623 250.063 5.77623 248.288 6.87494 247.189L119.958 134.106C121.056 133.007 122.832 133.007 123.931 134.106C125.03 135.205 125.03 136.981 123.931 138.079L10.8483 251.162C10.2975 251.71 9.57816 251.986 8.86161 251.986Z" fill="white"/>
<path d="M224.58 121.916C223.399 121.916 222.247 122.029 221.112 122.192C219.789 115.13 215.413 109.15 209.408 105.669C203.569 113.475 197.157 121.472 190.149 129.663L190.84 156.946H220.685H246.312C247.922 153.7 248.85 150.056 248.85 146.189C248.85 132.783 237.983 121.916 224.58 121.916Z" fill="#5CE1E6"/>
<path d="M68.2875 74.1266C73.1375 69.2765 79.8703 66.5705 86.7126 66.7672L131.012 67.8912C138.804 61.2231 146.414 55.1169 153.86 49.5054C148.007 40.9377 138.167 35.3092 127.005 35.3092C125.423 35.3092 123.883 35.461 122.36 35.6802C119.542 20.5989 106.332 9.18185 90.4359 9.18185C74.5397 9.18185 61.3299 20.5989 58.5087 35.6745C56.9885 35.4554 55.4458 35.3036 53.8637 35.3036C35.9107 35.3036 21.3577 49.8566 21.3577 67.8097C21.3577 72.9913 22.6025 77.8723 24.7578 82.2194H60.1947L68.2875 74.1266Z" fill="#5CE1E6"/>
<path d="M188.274 87.106C183.318 87.106 178.656 85.1755 175.152 81.6686C171.645 78.1617 169.712 73.5028 169.712 68.5459C169.712 63.5863 171.645 58.9273 175.152 55.4204C178.656 51.9135 183.318 49.9831 188.274 49.9831C193.234 49.9831 197.896 51.9135 201.4 55.4204C204.907 58.9273 206.837 63.5863 206.837 68.5459C206.837 73.5028 204.907 78.1645 201.4 81.6686C197.896 85.1755 193.231 87.106 188.274 87.106ZM188.274 55.6031C184.821 55.6031 181.57 56.949 179.125 59.3937C176.68 61.8384 175.332 65.0868 175.332 68.5459C175.332 72.0022 176.678 75.2506 179.125 77.6953C181.57 80.14 184.818 81.486 188.274 81.486C191.731 81.486 194.982 80.14 197.427 77.6953C199.871 75.2506 201.217 72.0022 201.217 68.5459C201.217 65.0896 199.871 61.8384 197.427 59.3937C194.979 56.949 191.731 55.6031 188.274 55.6031Z" fill="white"/>
<path d="M254.27 13.0597C254.506 10.5222 253.61 8.03257 251.806 6.22855C250.002 4.42453 247.495 3.52814 244.975 3.76418C212.297 6.82427 173.297 27.7138 128.618 65.9972L84.0487 64.8676C77.3693 64.6681 70.8754 67.3039 66.1715 72.0078L45.8102 92.3691C43.551 94.6283 42.6911 97.8233 43.5145 100.911C44.3378 104 46.6701 106.343 49.7555 107.181L81.4242 115.768L101.252 135.593C102.35 136.691 104.126 136.691 105.225 135.593C106.324 134.494 106.324 132.718 105.225 131.619L86.8278 113.222C150.084 48.2352 203.457 13.2985 245.5 9.3617C246.368 9.29426 247.217 9.58931 247.832 10.2047C248.448 10.8201 248.754 11.6715 248.673 12.537C244.739 54.5774 209.796 107.953 144.812 171.209L126.412 152.809C125.314 151.711 123.538 151.711 122.439 152.809C121.34 153.908 121.34 155.684 122.439 156.783L142.269 176.61L150.856 208.276C151.691 211.364 154.037 213.696 157.126 214.52C157.896 214.725 158.674 214.826 159.444 214.826C161.748 214.823 163.971 213.918 165.665 212.221L186.024 191.863C190.733 187.153 193.338 180.64 193.167 173.986L192.037 129.416C230.318 84.7371 251.207 45.7371 254.27 13.0597ZM82.0255 110.109L51.2279 101.757C49.6009 101.316 49.0923 100.007 48.9462 99.4672C48.8029 98.9248 48.5949 97.5339 49.7864 96.3452L70.1476 75.984C73.7725 72.3619 78.8024 70.364 83.9082 70.4876L122.332 71.4599C109.358 82.9106 95.9153 95.8029 82.0255 110.109ZM187.547 174.129C187.679 179.249 185.675 184.265 182.05 187.889L161.692 208.248C160.5 209.439 159.115 209.231 158.573 209.088C158.03 208.942 156.721 208.433 156.28 206.804L147.928 176.009C162.231 162.119 175.126 148.679 186.577 135.705L187.547 174.129Z" fill="white"/>
<path d="M71.7437 221.598C71.0243 221.598 70.305 221.323 69.757 220.775C68.6583 219.676 68.6583 217.9 69.757 216.802L115.689 170.866C116.788 169.768 118.564 169.768 119.663 170.866C120.761 171.965 120.761 173.741 119.663 174.84L73.7304 220.775C73.1796 221.323 72.4602 221.598 71.7437 221.598Z" fill="#5CE1E6"/>
<path d="M26.4718 199.107C25.7525 199.107 25.0331 198.832 24.4852 198.284C23.3865 197.185 23.3865 195.409 24.4852 194.31L80.1541 138.641C81.2528 137.543 83.0287 137.543 84.1274 138.641C85.2261 139.74 85.2261 141.516 84.1274 142.615L28.4585 198.284C27.9077 198.834 27.1912 199.107 26.4718 199.107Z" fill="#5CE1E6"/>
<path d="M102.196 225.743C101.476 225.743 100.757 225.468 100.209 224.92C99.1103 223.821 99.1103 222.045 100.209 220.946L125.033 196.12C126.131 195.021 127.907 195.021 129.006 196.12C130.105 197.219 130.105 198.995 129.006 200.093L104.182 224.92C103.634 225.468 102.915 225.743 102.196 225.743Z" fill="#5CE1E6"/>
<path d="M38.9088 152.073C38.1895 152.073 37.4701 151.798 36.9222 151.25C35.8235 150.151 35.8235 148.375 36.9222 147.276L57.2216 126.98C58.3203 125.881 60.0962 125.881 61.195 126.98C62.2937 128.079 62.2937 129.854 61.195 130.956L40.8955 151.253C40.3476 151.798 39.6282 152.073 38.9088 152.073Z" fill="#5CE1E6"/>
<path d="M57.1262 242.193C55.575 242.193 54.3162 240.937 54.3162 239.383V227.423C54.3162 225.869 55.575 224.613 57.1262 224.613C58.6773 224.613 59.9362 225.869 59.9362 227.423V239.383C59.9362 240.937 58.6801 242.193 57.1262 242.193Z" fill="#5CE1E6"/>
<path d="M63.1058 236.213H51.1492C49.5981 236.213 48.3392 234.957 48.3392 233.403C48.3392 231.849 49.5981 230.593 51.1492 230.593H63.1058C64.6569 230.593 65.9158 231.849 65.9158 233.403C65.9158 234.957 64.6569 236.213 63.1058 236.213Z" fill="#5CE1E6"/>
<path d="M24.2715 172.69C22.7204 172.69 21.4615 171.434 21.4615 169.88V157.921C21.4615 156.367 22.7204 155.111 24.2715 155.111C25.8227 155.111 27.0815 156.367 27.0815 157.921V169.88C27.0815 171.434 25.8255 172.69 24.2715 172.69Z" fill="#5CE1E6"/>
<path d="M30.2513 166.71H18.2947C16.7436 166.71 15.4847 165.454 15.4847 163.9C15.4847 162.347 16.7436 161.09 18.2947 161.09H30.2513C31.8024 161.09 33.0613 162.347 33.0613 163.9C33.0613 165.454 31.8024 166.71 30.2513 166.71Z" fill="#5CE1E6"/>
<path d="M10.3818 221.365C7.98483 221.365 5.73121 220.429 4.03397 218.732C2.33954 217.04 1.40662 214.784 1.40662 212.39C1.40662 209.996 2.33954 207.739 4.03397 206.042C7.53523 202.546 13.2283 202.546 16.7267 206.042C18.424 207.739 19.3569 209.993 19.3569 212.39C19.3569 214.787 18.424 217.038 16.7295 218.735C15.0323 220.429 12.7787 221.365 10.3818 221.365ZM10.3818 209.035C9.5219 209.035 8.66485 209.361 8.01012 210.015C7.37506 210.65 7.02662 211.491 7.02662 212.39C7.02662 213.283 7.37506 214.126 8.01012 214.761C9.27743 216.029 11.4889 216.029 12.7534 214.761C13.3885 214.126 13.7369 213.286 13.7369 212.39C13.7369 211.493 13.3885 210.65 12.7534 210.015C12.0987 209.363 11.2388 209.035 10.3818 209.035Z" fill="#5CE1E6"/>
<path d="M87.5556 246.54C85.257 246.54 82.9584 245.663 81.2106 243.915C79.5134 242.221 78.5804 239.967 78.5804 237.567C78.5804 235.17 79.5134 232.917 81.2106 231.222C84.7091 227.727 90.4021 227.727 93.9034 231.222C95.6006 232.917 96.5335 235.17 96.5335 237.567C96.5335 239.967 95.6006 242.221 93.9034 243.915C92.1527 245.666 89.8542 246.54 87.5556 246.54ZM87.5556 234.218C86.6957 234.218 85.8387 234.544 85.1839 235.199C84.5489 235.834 84.2004 236.674 84.2004 237.57C84.2004 238.467 84.5489 239.31 85.1839 239.945C86.4934 241.251 88.6206 241.251 89.9272 239.945C90.5623 239.31 90.9107 238.469 90.9107 237.57C90.9107 236.677 90.5623 235.834 89.9272 235.199C89.2753 234.547 88.4154 234.218 87.5556 234.218Z" fill="#5CE1E6"/>
</svg>
